<svg width="512" height="512" viewBox="0 0 512 512" fill="#479D64" xmlns="http://www.w3.org/2000/svg">
  <path
    d="M266.535 180.386C212.97 121.815 145.211 76.4684 83.4999 27.0669C77.3269 22.1321 72.5716 21.3784 66.4884 27.5872C17.338 77.7066 -11.3016 149.754 4.23844 219.774C19.3119 287.641 68.2828 340.398 117.936 386.103C139.397 405.86 161.738 424.828 184.941 442.521C206.456 458.94 229.623 473.188 252.09 488.387C256.612 491.438 259.967 489.913 262.515 485.552C282.165 451.816 302.281 417.614 312.491 379.607C322.971 340.56 323.94 297.851 312.922 258.822C304.38 228.639 287.369 203.175 266.553 180.404L266.535 180.386Z"/>
  <path
    d="M510.744 156.753C505.055 106.418 480.489 60.3183 444.743 24.8597C440.634 20.7862 437.063 21.3784 432.99 24.6623C384.413 63.6201 335.514 103.637 287.297 143.797C290.294 146.919 293.344 150.006 296.269 153.2C324.173 183.723 342.315 214.678 351.682 247.858C364.226 292.181 364.118 342.677 351.395 390.051C346.514 408.229 339.803 425.222 332.177 441.534C363.257 419.354 391.753 394.932 420.141 363.08C473.562 303.127 520.272 240.913 510.762 156.753H510.744Z"/>
</svg>
